<svg width="45" height="20" viewBox="0 0 45 20" fill="none" xmlns="http://www.w3.org/2000/svg">
<rect x="1" y="0.5" width="43" height="19" rx="3.5" fill="url(#paint0_linear_276_842)"/>
<rect x="1" y="0.5" width="43" height="19" rx="3.5" stroke="#2B2B2B"/>
<path d="M12.08 9.704C12.552 9.792 12.94 10.028 13.244 10.412C13.548 10.796 13.7 11.236 13.7 11.732C13.7 12.18 13.588 12.576 13.364 12.92C13.148 13.256 12.832 13.52 12.416 13.712C12 13.904 11.508 14 10.94 14H7.328V5.624H10.784C11.352 5.624 11.84 5.716 12.248 5.9C12.664 6.084 12.976 6.34 13.184 6.668C13.4 6.996 13.508 7.368 13.508 7.784C13.508 8.272 13.376 8.68 13.112 9.008C12.856 9.336 12.512 9.568 12.08 9.704ZM9.008 9.08H10.544C10.944 9.08 11.252 8.992 11.468 8.816C11.684 8.632 11.792 8.372 11.792 8.036C11.792 7.7 11.684 7.44 11.468 7.256C11.252 7.072 10.944 6.98 10.544 6.98H9.008V9.08ZM10.7 12.632C11.108 12.632 11.424 12.536 11.648 12.344C11.88 12.152 11.996 11.88 11.996 11.528C11.996 11.168 11.876 10.888 11.636 10.688C11.396 10.48 11.072 10.376 10.664 10.376H9.008V12.632H10.7ZM18.9269 14.084C18.1429 14.084 17.4229 13.9 16.7669 13.532C16.1109 13.164 15.5909 12.656 15.2069 12.008C14.8229 11.352 14.6309 10.612 14.6309 9.788C14.6309 8.972 14.8229 8.24 15.2069 7.592C15.5909 6.936 16.1109 6.424 16.7669 6.056C17.4229 5.688 18.1429 5.504 18.9269 5.504C19.7189 5.504 20.4389 5.688 21.0869 6.056C21.7429 6.424 22.2589 6.936 22.6349 7.592C23.0189 8.24 23.2109 8.972 23.2109 9.788C23.2109 10.612 23.0189 11.352 22.6349 12.008C22.2589 12.656 21.7429 13.164 21.0869 13.532C20.4309 13.9 19.7109 14.084 18.9269 14.084ZM18.9269 12.584C19.4309 12.584 19.8749 12.472 20.2589 12.248C20.6429 12.016 20.9429 11.688 21.1589 11.264C21.3749 10.84 21.4829 10.348 21.4829 9.788C21.4829 9.228 21.3749 8.74 21.1589 8.324C20.9429 7.9 20.6429 7.576 20.2589 7.352C19.8749 7.128 19.4309 7.016 18.9269 7.016C18.4229 7.016 17.9749 7.128 17.5829 7.352C17.1989 7.576 16.8989 7.9 16.6829 8.324C16.4669 8.74 16.3589 9.228 16.3589 9.788C16.3589 10.348 16.4669 10.84 16.6829 11.264C16.8989 11.688 17.1989 12.016 17.5829 12.248C17.9749 12.472 18.4229 12.584 18.9269 12.584ZM27.3528 14.084C26.7688 14.084 26.2408 13.984 25.7688 13.784C25.3048 13.584 24.9368 13.296 24.6648 12.92C24.3928 12.544 24.2528 12.1 24.2448 11.588H26.0448C26.0688 11.932 26.1888 12.204 26.4048 12.404C26.6288 12.604 26.9328 12.704 27.3168 12.704C27.7088 12.704 28.0168 12.612 28.2408 12.428C28.4648 12.236 28.5768 11.988 28.5768 11.684C28.5768 11.436 28.5008 11.232 28.3488 11.072C28.1968 10.912 28.0048 10.788 27.7728 10.7C27.5488 10.604 27.2368 10.5 26.8368 10.388C26.2928 10.228 25.8488 10.072 25.5048 9.92C25.1688 9.76 24.8768 9.524 24.6288 9.212C24.3888 8.892 24.2688 8.468 24.2688 7.94C24.2688 7.444 24.3928 7.012 24.6408 6.644C24.8888 6.276 25.2368 5.996 25.6848 5.804C26.1328 5.604 26.6448 5.504 27.2208 5.504C28.0848 5.504 28.7848 5.716 29.3208 6.14C29.8648 6.556 30.1648 7.14 30.2208 7.892H28.3728C28.3568 7.604 28.2328 7.368 28.0008 7.184C27.7768 6.992 27.4768 6.896 27.1008 6.896C26.7728 6.896 26.5088 6.98 26.3088 7.148C26.1168 7.316 26.0208 7.56 26.0208 7.88C26.0208 8.104 26.0928 8.292 26.2368 8.444C26.3888 8.588 26.5728 8.708 26.7888 8.804C27.0128 8.892 27.3248 8.996 27.7248 9.116C28.2688 9.276 28.7128 9.436 29.0568 9.596C29.4008 9.756 29.6968 9.996 29.9448 10.316C30.1928 10.636 30.3168 11.056 30.3168 11.576C30.3168 12.024 30.2008 12.44 29.9688 12.824C29.7368 13.208 29.3968 13.516 28.9488 13.748C28.5008 13.972 27.9688 14.084 27.3528 14.084ZM34.6653 14.084C34.0813 14.084 33.5533 13.984 33.0813 13.784C32.6173 13.584 32.2493 13.296 31.9773 12.92C31.7053 12.544 31.5653 12.1 31.5573 11.588H33.3573C33.3813 11.932 33.5013 12.204 33.7173 12.404C33.9413 12.604 34.2453 12.704 34.6293 12.704C35.0213 12.704 35.3293 12.612 35.5533 12.428C35.7773 12.236 35.8893 11.988 35.8893 11.684C35.8893 11.436 35.8133 11.232 35.6613 11.072C35.5093 10.912 35.3173 10.788 35.0853 10.7C34.8613 10.604 34.5493 10.5 34.1493 10.388C33.6053 10.228 33.1613 10.072 32.8173 9.92C32.4813 9.76 32.1893 9.524 31.9413 9.212C31.7013 8.892 31.5813 8.468 31.5813 7.94C31.5813 7.444 31.7053 7.012 31.9533 6.644C32.2013 6.276 32.5493 5.996 32.9973 5.804C33.4453 5.604 33.9573 5.504 34.5333 5.504C35.3973 5.504 36.0973 5.716 36.6333 6.14C37.1773 6.556 37.4773 7.14 37.5333 7.892H35.6853C35.6693 7.604 35.5453 7.368 35.3133 7.184C35.0893 6.992 34.7893 6.896 34.4133 6.896C34.0853 6.896 33.8213 6.98 33.6213 7.148C33.4293 7.316 33.3333 7.56 33.3333 7.88C33.3333 8.104 33.4053 8.292 33.5493 8.444C33.7013 8.588 33.8853 8.708 34.1013 8.804C34.3253 8.892 34.6373 8.996 35.0373 9.116C35.5813 9.276 36.0253 9.436 36.3693 9.596C36.7133 9.756 37.0093 9.996 37.2573 10.316C37.5053 10.636 37.6293 11.056 37.6293 11.576C37.6293 12.024 37.5133 12.44 37.2813 12.824C37.0493 13.208 36.7093 13.516 36.2613 13.748C35.8133 13.972 35.2813 14.084 34.6653 14.084Z" fill="white"/>
<defs>
<linearGradient id="paint0_linear_276_842" x1="22.5" y1="0" x2="22.5" y2="20" gradientUnits="userSpaceOnUse">
<stop stop-color="#4A4A4A"/>
<stop offset="1" stop-color="#2B2B2B"/>
</linearGradient>
</defs>
</svg>
